<svg width="446" height="445" viewBox="0 0 446 445" fill="none" xmlns="http://www.w3.org/2000/svg">
<ellipse opacity="0.05" cx="222.941" cy="222.413" rx="126.941" ry="126.587" fill="white"/>
<ellipse opacity="0.05" cx="222.941" cy="222.413" rx="175.411" ry="174.921" fill="white"/>
<ellipse opacity="0.05" cx="222.941" cy="222.413" rx="222.59" ry="221.969" fill="white"/>
<path fill-rule="evenodd" clip-rule="evenodd" d="M247.108 183.003H197.891C189.577 183.003 182.837 189.743 182.837 198.057V247.275C182.837 255.589 189.577 262.329 197.891 262.329H247.108C255.423 262.329 262.163 255.589 262.163 247.275V198.057C262.163 189.743 255.423 183.003 247.108 183.003ZM197.891 180.852C188.389 180.852 180.686 188.555 180.686 198.057V247.275C180.686 256.777 188.389 264.479 197.891 264.479H247.108C256.61 264.479 264.313 256.777 264.313 247.275V198.057C264.313 188.555 256.61 180.852 247.108 180.852H197.891Z" fill="#00E995"/>
<path d="M217.26 200.095C217.26 197.201 219.606 194.855 222.5 194.855V194.855C225.394 194.855 227.74 197.201 227.74 200.095V206.812C227.74 209.706 225.394 212.052 222.5 212.052V212.052C219.606 212.052 217.26 209.706 217.26 206.812V200.095Z" fill="#00E995"/>
<path fill-rule="evenodd" clip-rule="evenodd" d="M213.065 99.4521C213.326 101.813 211.623 103.939 209.262 104.2C149.666 110.782 103.307 161.313 103.307 222.666C103.307 284.018 149.666 334.55 209.262 341.132C211.623 341.393 213.326 343.518 213.065 345.879C212.805 348.24 210.679 349.943 208.318 349.682C144.411 342.624 94.7051 288.452 94.7051 222.666C94.7051 156.879 144.411 102.708 208.318 95.6491C210.679 95.3883 212.805 97.091 213.065 99.4521ZM231.935 99.4521C232.196 97.091 234.321 95.3883 236.683 95.6491C300.59 102.708 350.295 156.879 350.295 222.666C350.295 288.452 300.59 342.624 236.683 349.682C234.321 349.943 232.196 348.24 231.935 345.879C231.674 343.518 233.377 341.393 235.738 341.132C295.335 334.549 341.693 284.018 341.693 222.666C341.693 161.313 295.335 110.782 235.738 104.2C233.377 103.939 231.674 101.813 231.935 99.4521Z" fill="#00E995"/>
<path fill-rule="evenodd" clip-rule="evenodd" d="M277.281 201.965C280.979 207.99 283.111 215.079 283.111 222.666C283.111 230.253 280.979 237.342 277.281 243.367L278.55 244.635C282.546 238.269 284.857 230.737 284.857 222.666C284.857 214.594 282.546 207.063 278.55 200.696L277.281 201.965ZM288.535 254.621L289.787 255.873C296.504 246.523 300.459 235.056 300.459 222.666C300.459 210.275 296.504 198.808 289.787 189.459L288.535 190.711C294.944 199.731 298.712 210.758 298.712 222.666C298.712 234.573 294.944 245.601 288.535 254.621Z" fill="#00E995"/>
<path fill-rule="evenodd" clip-rule="evenodd" d="M167.718 243.367C164.021 237.342 161.889 230.253 161.889 222.666C161.889 215.079 164.021 207.989 167.718 201.965L166.45 200.696C162.453 207.062 160.142 214.594 160.142 222.666C160.142 230.737 162.453 238.269 166.45 244.635L167.718 243.367ZM156.464 190.711L155.212 189.459C148.496 198.808 144.541 210.275 144.541 222.666C144.541 235.056 148.496 246.523 155.212 255.873L156.464 254.621C150.055 245.601 146.287 234.573 146.287 222.666C146.287 210.758 150.055 199.731 156.464 190.711Z" fill="#00E995"/>
</svg>
